<svg xmlns="http://www.w3.org/2000/svg" xmlns:xlink="http://www.w3.org/1999/xlink" height="97.773" width="222.708" viewBox="0 0 222.708 97.773" id="Layer_3">
    <defs id="defs23">
        <style>.logo,.logo:target~.logo:last-child{display:none}.logo:last-child,.logo:target{display:block}</style>
        <linearGradient xlink:href="#BG-OVERLAY" gradientTransform="translate(-202.675 365.287)" y2="-317.074" x2="424.268" y1="-317.074" x1="206.658" gradientUnits="userSpaceOnUse" id="BG">
            <stop id="stop2" offset="0" stop-color="#18a19c"/>
            <stop id="stop4" offset="1" stop-color="#027db5"/>
        </linearGradient>
        <linearGradient gradientTransform="translate(-202.675 365.287)" y2="-328.792" x2="424.268" y1="-328.792" x1="208.234" gradientUnits="userSpaceOnUse" id="BG-OVERLAY">
            <stop id="stop9" offset="0" stop-color="#39afab"/>
            <stop id="stop11" offset="1" stop-color="#2692be"/>
        </linearGradient>
        <path id="bg" d="M6.012 94.201c-.471 0-.056.31-.28.008-.27-.365-.183-.734.016-1.378l5.574-18.348c.486-1.573.597-4.264.644-4.406.012-.038-.57-.388-.592-.42-.042-.057-.378-.046-.411-.046-.462 0-2.823.439-3.664.66-.077.02-.116.173-.184.173-.183 0-.088.135-.195-.012-.274-.374-.046-.248.24-1.147l6.33-19.226c.486-1.537 1.266-1.851 2.824-2.263l8.181-2.428c1.59-.42 3.562-.971 4.3-1.201a26.72 26.72 0 0 0 2.286-.851c.308-.131.442-.196.581-.249l.269-.088c.034-.012.213-.045.778-.34.46-.24.82-.308.95-.367.137-.063.383-.19.438-.219.045-.024.65-.21 1.25-.426.524-.188 2.128-.854 3.675-1.41l12.328-4.535c1.322-.476 2.012-.656 2.308-.656.01 0 .075-.021.083-.02.004.017-.01-.014 0 0 .044.062.165.023.227.023.315 0 1.556-.231 3.231-.732.883-.264 2.219-.522 3.072-.723.855-.202 2.25-.477 3.135-.64.44-.082.74-.133 1.028-.187l.177-.019c.052-.01.082.028.115.019l.108-.03c.006 0 .098.005.148-.002.06-.008 1.136-.104 2.824-.236.008 0 .896-.032 2.084-.032 1.096 0 2.09.274 3.038.378 2.402.264 3.769.664 3.784.67.59.234 1.433.159 2.124.159 1.081 0 2.86-.607 3.43-1.126l.867-.458c3.471-2.652 8.3-5.476 8.351-5.502a255.45 255.45 0 0 1 2.721-1.405c.084-.036 2.824-.9 3.866-1.274 1.05-.375 2.945-1.057 4.385-1.491 1.449-.438 3-.648 3.54-.783.55-.137 1.538-.431 2.067-.55.479-.106 4.378-.862 5.785-1.014 2.013-.215 2.36-.273 2.47-.291h-.04c.009 0 1.353.018 2.99.03.03 0 2.8.025 5.457.73 4 1.073 5.721 2.863 5.744 2.883.937.835 3.451 1.554 4.92 1.554.437 0 1.313-.002 1.676-.1l11.883-3.43c1.627-.43 4.34-2.889 4.843-4.493l1.49-4.98c.483-1.538 1.23-2.035 2.788-2.447 0 0 14.065-3.614 14.86-3.824l10.493-2.77c.24-.067.47-.146.681-.146.476 0 .103-.282.325.022.27.368.134-.067-.07.577l-1.938 6.09c-.11.354.59 1.95.747 2.163.188.257 1.469.61 2 .61.74 0 1.955-.234 2.49-.48 1.149-.532 2.553-1.267 3.093-1.464.563-.206 1.448-.424 1.99-.586a36.72 36.72 0 0 1 2.43-.638c.81-.173 2.013-.308 2.972-.377.938-.067 1.792-.011 2.075-.011l.29.064c2.481.055 4.012.428 6.161 1.548 2.278 1.186 3.53 2.858 3.541 2.876.951 1.375 3.631 2.898 5.273 3.22l3.785.848c.745.146.238-.423.548.17.31.593.108.547-.199 1.241l-2.371 5.712c-.666 1.506-1.758 3.787-2.477 5.267-.01.02-.758 1.762-2.026 3.768-1.664 2.63-4.415 4.938-4.443 4.962-1.405 1.232-1.882 1.7-1.93 1.738-.045.032-.961.67-2.366 1.579-.008.005-.917.408-2.696 1.22-1.688.77-2.176 1.048-2.182 1.05-1.674.52-2.665.786-2.825.827-.168.044-.711.093-1.382.205-.214.035-.48.173-.592.193-.093.018-.591.013-.632.03l-1.109.177c-1.05.153-1.987.252-2.939.261-.46.004-1.066.056-1.36.06-.148.002-.347.012-.429.014-.049 0-.232-.023-.264-.018-.022-.001-.252-.037-.307-.04-.133-.012-.705.089-1.028.04-.02-.003-.21.01-.233.01-.402 0-1.945.476-2.814 1.117l-1.052.527c-1.98 1.186-3.753 1.975-6.234 2.63-2.04.54-3.03.499-3.041.5-1.612.068-2.302.164-2.32.165l-.119-.024c-.08 0-.217.083-.258.207-.015.046-.128.167-.145.216-.156.104-1.096.245-2.766.687l-11.95 3.299c-1.595.42-3.738 1.054-4.943 1.51l-1.049.24-1.128.348c-1.043.14-3.261.86-4.854 1.283l-2.528.579c-1.635.432-2.77.689-2.806.699l.299-.05c-.038.01-.593.095-1.658.53l-.82.215-1.212.292c-1.432.379-2.522.483-3.893.483-1.886 0-2.68-.212-2.689-.216-.527-.177-1.613-.294-2.304-.294-1.35 0-3.345.808-4.26 1.37-.051.03-4.318 2.505-8.371 3.846l-.622.247c-.899.3-1.562.516-1.767.571-.2.054-1.49.372-2.69.626-1.17.245-2.8.489-3.986.6-.583.056-1 .232-1.38.27-.19.019-.328.049-.435.06-.068.007-.16.013-.2.02l-.141-.017a21.91 21.91 0 0 0-.345.064l-.31.063c-.246.05-1.82.719-2.868 1.33a83.81 83.81 0 0 1-2.093 1.03c-1.743.84-2.345.992-3.713 1.45l-.982.559c-.61.22-.877.33-.93.35-.025.007-.528.211-.705.26-.18.046-.628.163-.66.17-.055.011-1.06.211-2.742.54-.004 0-.504.089-2.125.203-.617.043-1.03.054-1.557.054a19.48 19.48 0 0 1-1.327-.032c-1.755-.267-2.451-.286-2.521-.302a27.525 27.525 0 0 1-.495-.122c-.054-.018-1.303-.337-1.773-.557-.082-.038-1.09-.159-1.214-.159-.674 0-2.337.615-3.5 1.412-.016.01-1.432.676-3.488 1.755a1231.27 1231.27 0 0 1-5.793 3.026c-1.538.55-2.35.86-2.413.88 0 0-.66.21-.987.296-.37.098-1.882.35-2.825.56-.937.207-2.015.431-3.646.649-.005 0-.921.257-1.204.295-.66.075-1.188-.077-1.939-.077-4.152 0-8.65-.777-8.692-.788-.28-.083-1.262-.06-1.55-.06-1.39 0-2.144.916-2.558 2.228l-.649.51c-.485 1.537-1.895 2.492-3.454 2.903l-9.797 2.53c-1.614.426-4.83 1.228-6.4 1.651L6.54 94.066c-.245.066-.527.135-.527.135z"/>
        <path id="bg-top" d="M7.213 70.665c-.182 0-.285-.119-.392-.266-.274-.374.02-.06.306-.96l6.362-19.16c.487-1.536 1.422-2.216 2.98-2.628l8.004-2.03c1.59-.42 3.197-.993 3.937-1.222a40.77 40.77 0 0 0 2.826-1.05c.308-.13.454-.218.592-.27l.39-.178c.033-.015-.03.067.535-.228.462-.241.787-.441.916-.5.14-.062.461-.156.516-.186.045-.023.451-.221 1.051-.437.524-.188 2.284-.8 3.83-1.355l12.162-4.347c1.322-.476 2.067-.639 2.363-.639.011 0 .22-.023.228-.021.004.016.18.053.19.067.043.061.383.039.445.039.315 0 1.037-.265 2.712-.766.883-.264 2.219-.688 3.072-.89.856-.202 2.106-.554 2.991-.717.44-.08.916-.12 1.205-.174l.177-.019c.052-.01.347-.03.38-.038l-.157.028c.006-.001.297-.02.347-.027.06-.008.937-.08 2.625-.212.008 0 .73-.188 1.919-.188 1.096 0 1.989.175 2.938.279 2.402.265 3.57.686 3.584.692.59.234 1.467.403 2.158.403 1.081 0 2.253.01 2.823-.508l1.905-1.087c3.471-2.652 8.444-5.057 8.495-5.082 1.563-.815 2.664-1.69 2.721-1.716.083-.035 2.645-1.01 3.69-1.384 1.05-.375 2.954-.957 4.395-1.392 1.449-.438 3.078-.99 3.618-1.125.549-.137 1.504-.421 2.033-.538.48-.107 4.29-.697 5.696-.85 2.013-.214 2.785-.307 2.894-.325l-.544.13c.009 0 1.473-.092 3.111-.08.03 0 2.68-.05 5.336.654 4.001 1.073 5.742 2.746 5.765 2.766.936.835 3.524 1.849 4.993 1.849.436 0 1.028-.127 1.39-.224l12.344-3.056c1.628-.432 4.256-3.223 4.762-4.827l1.531-4.47c.482-1.537.941-2.239 2.499-2.65 0 0 14.243-3.974 15.038-4.184l10.804-2.886c.242-.067.207.033.42.033.474 0-.02-.16.202.144.27.368.197-.356-.006.29l-1.81 6.236c-.11.354-.056 1.547.101 1.76.188.258 1.018 1.117 1.55 1.117.74 0 2.06.05 2.596-.197 1.148-.532 3.427-1.224 3.967-1.421a43.122 43.122 0 0 1 2.04-.654c.55-.166 1.504-.543 2.326-.721.81-.173 1.963-.305 2.922-.374a38.844 38.844 0 0 1 2.13-.101l.366-.055c2.481.055 3.902.429 6.051 1.549 2.278 1.186 3.356 2.531 3.368 2.55.953 1.375 3.626 3.186 5.268 3.507l3.778.852c.745.146.61-.113.92.481.304.58-.063.831-.347 1.508L12.317 70.624c-.028-.009-.564-.583-.582-.583-.462 0-3.088.438-3.929.66-.076.02-.524-.036-.593-.036z"/>
        <path id="border" d="M219.745 15.599l-4.021-.786c-1.613-.316-3.696-1.68-4.632-3.031 0 0-1.186-1.714-3.52-2.928-2.189-1.14-4.56-1.728-7.035-1.782l-.308-.001c-.271-.002-1.278.054-2.24.123-.96.07-2.411.27-3.225.443-.813.175-1.938.454-2.502.623-.563.168-1.468.47-2.013.668s-1.926.796-3.069 1.325-3.63.961-3.138-.604l2.065-6.579c.492-1.567-.405-2.507-1.994-2.086L172.44 4.07c-1.589.42-4.188 1.105-5.775 1.526l-9.053 2.392c-1.589.42-3.292 2.045-3.785 3.612l-1.519 4.823c-.493 1.566-2.196 3.192-3.786 3.612l-12.025 3.178c-1.588.42-3.891-.132-5.115-1.226 0 0-2.299-2.051-6.375-3.146-2.703-.717-5.785-.735-5.785-.735l-2.99-.02c-.001.001-1.148.125-2.548.274-1.401.151-5.566.931-6.096 1.05-.529.118-1.411.326-1.958.462s-2.173.604-3.613 1.038c-1.44.435-3.476 1.097-4.522 1.471-1.047.375-3.823 1.497-3.873 1.52-.049.021-1.283.661-2.74 1.419 0 0-5.081 2.646-8.6 5.337l-.936.715c-.936.856-2.951 1.059-4.477.449 0 0-1.521-.606-3.969-.875-2.632-.289-5.133-.093-5.133-.093-1.638.128-3.026.239-3.086.248l-.096.015c.007-.001-.71.132-1.596.294-.885.163-2.309.462-3.163.663a67.64 67.64 0 0 0-3.156.847c-.881.264-3.125.921-3.058.708.068-.214-1.141.067-2.687.624l-12.493 4.502c-1.546.558-3.239 1.167-3.764 1.355-.525.188-1.013.371-1.066.399-.054.029-.333.167-.465.228s-.617.307-1.077.546c-.459.24-.673.348-.473.24.199-.108-.187.037-.858.323-.672.285-1.819.707-2.551.935-.732.228-2.63.757-4.219 1.177l-8.18 2.164c-1.588.42-3.294 2.044-3.791 3.611L5.669 69.669c-.497 1.565-.147 2.647.776 2.403.923-.244 4.463-1.073 4.417-.928-.046.144-.48 1.546-.964 3.114l-5.9 19.105c-.484 1.569.417 2.503 2.003 2.075l11.619-3.133c1.586-.429 4.184-1.121 5.772-1.541l10.352-2.738c1.588-.42 3.293-2.044 3.788-3.612l.081-.258c.494-1.567 2.192-2.481 3.772-2.032 0 0 5.652 1.606 10.488 1.06l.321-.043c1.628-.22 3.727-.569 4.664-.778a77.914 77.914 0 0 0 2.39-.561c.377-.101.734-.195.792-.214.059-.018 1.373-.482 2.919-1.037 0 0 3.31-1.183 6.288-2.742a39.064 39.064 0 0 0 3.566-2.108c1.355-.929 2.848-1.51 3.318-1.291.469.221 1.861.698 1.934.72.073.021.194.055.268.07.074.018 1.463.234 3.087.482 0 0 .979.147 3.087.001 1.656-.117 2.083-.2 2.083-.2 1.612-.315 2.96-.58 2.995-.588s.224-.058.42-.109l.356-.094 1.171-.423.609-.22c1.655-.554 3.312-1.162 4.917-1.936 1.574-.759 1.787-.884 1.787-.884 1.42-.828 2.719-1.504 2.887-1.503s.287 0 .261-.002c-.025-.001.922-.095 2.105-.205a46.41 46.41 0 0 0 4.282-.652 114.51 114.51 0 0 0 2.507-.547 59.596 59.596 0 0 0 2.011-.645l.242-.081c4.11-1.361 9.224-4.506 9.224-4.506 1.4-.859 3.819-1.137 5.377-.615 0 0 2.906.972 7.318-.193l1.087-.287 2.08-.85 2.889-.764 2.726-.72c1.588-.42 3.732-.875 4.768-1.011l.963-.255 1.158-.306c1.195-.452 3.475-1.167 5.063-1.587l11.824-3.126c1.59-.42 2.916-.852 2.951-.959.034-.107.09-.272.09-.271l2.992-.126s.954-.041 3.034-.591c2.487-.656 4.76-1.593 6.753-2.783l.874-.523c.892-.657 1.888-1.15 2.218-1.101a38.215 38.215 0 0 0 1.567.167c-.051-.005.686-.016 1.637-.022.95-.008 2.592-.14 3.648-.294l1.963-.288-.762.108c-.443.063-.258.024.414-.085a28.97 28.97 0 0 0 1.536-.286c.175-.046 1.599-.483 3.169-.97 0 0 .698-.219 2.418-1 1.81-.828 2.639-1.364 2.639-1.364 1.38-.892 2.529-1.636 2.556-1.656a598.8 598.8 0 0 0 2.291-2.002s2.867-2.516 4.56-5.191c1.287-2.035 2.183-3.882 2.183-3.882a199.83 199.83 0 0 0 2.509-5.42l2.617-5.933c.659-1.5-.116-2.987-1.729-3.303zm-3.81 7.952a189.563 189.563 0 0 1-2.461 5.316 41.325 41.325 0 0 1-2.009 3.567c-1.186 1.877-3.266 3.884-3.967 4.5-1.205 1.057-1.853 1.623-2.11 1.848-.323.211-1.15.747-2.351 1.522-.057.034-.776.478-2.242 1.146-1.36.619-1.991.839-2.063.863-1.576.49-2.722.84-2.998.921-.153.032-.634.124-1.262.229-.224.037-.4.066-.519.087-.088.017-.174.033-.257.054l-.78.113c-.903.133-2.405.255-3.213.262a269.3 269.3 0 0 0-1.545.018 37.71 37.71 0 0 1-1.146-.126 3.517 3.517 0 0 0-.534-.041c-1.362 0-2.865.865-3.929 1.63l-.75.449c-1.734 1.037-3.729 1.857-5.93 2.438-1.517.4-2.289.479-2.393.488l-2.921.123a3.171 3.171 0 0 0-2.082.858 40.27 40.27 0 0 1-1.675.479l-11.823 3.125c-1.64.435-3.882 1.135-5.215 1.628l-1.003.266-.782.207c-1.215.18-3.321.629-4.951 1.06l-2.726.721-2.86.756.024-.007c-.252.066-.491.164-.782.283l-1.55.633-.885.234a13.438 13.438 0 0 1-3.438.468c-1.239 0-2.004-.203-2.093-.228-.84-.276-1.781-.415-2.801-.415-1.92 0-3.824.492-5.221 1.352-.047.029-4.854 2.969-8.556 4.194l-.255.086c-.932.31-1.645.535-1.813.583-.199.049-1.118.251-2.348.51a43.135 43.135 0 0 1-3.925.598c-.585.055-1.116.104-1.499.143l-.466.046-.039.004h-.062c-.676 0-1.164 0-4.449 1.912a68.31 68.31 0 0 1-1.609.792c-1.586.764-3.262 1.355-4.544 1.784l-.033.011-.642.23-1.047.378-.21.056-.318.083-2.853.561c-.096.013-.556.073-1.743.157-.544.039-1.052.059-1.507.059-.55 0-.85-.029-.91-.036a361.376 361.376 0 0 1-2.871-.446c-.363-.123-1.275-.448-1.511-.556a3.792 3.792 0 0 0-1.614-.349c-1.893 0-4.03 1.326-4.861 1.896a36.25 36.25 0 0 1-3.242 1.913c-2.734 1.432-5.851 2.554-5.882 2.564-1.39.497-2.5.891-2.791.992l-.541.146-.13.035.006-.001c-.29.076-1.29.313-2.263.528-.761.17-2.708.503-4.398.73l-.096.013.013-.001-.204.028c-.539.06-1.128.09-1.752.09-3.73 0-7.435-1.041-7.472-1.051a6.179 6.179 0 0 0-1.693-.236c-2.716 0-5.18 1.8-5.993 4.376l-.082.257c-.163.516-1.038 1.351-1.561 1.488l-10.353 2.738c-1.616.427-4.212 1.12-5.787 1.545l-8.919 2.404 5.073-16.431c.52-1.683.913-2.953.955-3.082a3.206 3.206 0 0 0-.463-2.862 3.213 3.213 0 0 0-2.628-1.317c-.251 0-.534.016-1.296.162L15.027 50.7c.163-.516 1.042-1.353 1.565-1.491l8.181-2.164c1.653-.437 3.563-.971 4.35-1.215a35.96 35.96 0 0 0 2.853-1.046c.092-.04.174-.074.246-.104.418-.101.788-.292 1.313-.567.465-.244.843-.434.93-.475.126-.059.317-.15.465-.226.139-.053.432-.162.816-.3l3.765-1.356 12.493-4.502a18.09 18.09 0 0 1 1.287-.417c.135.017.272.024.411.024.523 0 1.142-.065 3.879-.883a64.362 64.362 0 0 1 2.977-.799 77.468 77.468 0 0 1 3.007-.632c.439-.081.839-.153 1.129-.208l.345-.063.041-.008c.319-.027 1.401-.114 2.933-.234.004 0 .738-.055 1.789-.055.984 0 1.909.046 2.747.138 1.884.208 3.088.651 3.152.675.945.374 2.01.571 3.081.571 1.815 0 3.435-.539 4.583-1.521l.851-.649c3.253-2.486 8.089-5.018 8.137-5.043 1.363-.71 2.303-1.196 2.589-1.343.515-.209 2.775-1.116 3.626-1.42.991-.354 2.992-1.006 4.368-1.421 1.528-.461 3.024-.888 3.461-.996.52-.13 1.381-.333 1.881-.443.44-.099 4.51-.86 5.745-.993l1.799-.193.574-.062 2.804.017c.025 0 2.725.029 4.983.628 3.149.847 5.001 2.383 5.092 2.458 1.505 1.333 3.82 2.161 6.05 2.161.699 0 1.368-.083 1.988-.247l12.025-3.178c2.658-.703 5.187-3.116 6.013-5.738l1.519-4.823c.162-.516 1.036-1.35 1.559-1.487l14.828-3.918 8.976-2.372L181 8.695c-.402 1.282-.211 2.592.522 3.594.45.613 1.513 1.642 3.565 1.642 1.287 0 2.615-.402 3.431-.779 1.161-.538 2.421-1.077 2.827-1.227.501-.183 1.34-.46 1.826-.604l.009-.002a37.09 37.09 0 0 1 2.253-.562c.668-.143 1.973-.32 2.787-.38a54.25 54.25 0 0 1 1.994-.113l.277.001c1.998.048 3.885.525 5.605 1.422 1.49.774 2.32 1.85 2.387 1.938 1.418 2.03 4.196 3.846 6.623 4.32l3.038.593-2.209 5.013z"/>
        <path id="copy" d="M37.214 49.815c-.185.085-.379.174-.583.265a6.389 6.389 0 0 0-.639.334 34.285 34.285 0 0 1-3.442 1.466 42.05 42.05 0 0 1-3.498 1.091l-1.444.381-1.443.382-2.859.755-2.916.771-.999 3.149 1.666-.44c.555-.146 1.092-.287 1.609-.426.741-.194 1.277-.151 1.611.13.332.283.499.699.499 1.254 0 .074-.009.181-.028.313a2.81 2.81 0 0 0-.027.368.24.24 0 0 0-.056.152.554.554 0 0 1-.055.209c-.815 2.474-3.894 12.135-4.689 14.62a373.597 373.597 0 0 0-2.304 7.46l10.828-2.861a937.048 937.048 0 0 1 1.776-5.628c.592-1.857 3.457-10.918 4.049-12.815a1454.15 1454.15 0 0 0 1.778-5.6c.591-1.875 1.184-3.743 1.776-5.602-.11.029-.213.066-.306.109a3.978 3.978 0 0 0-.304.163zm41.842 1.204c.024-.419.037-.826.037-1.218 0-1.413-.232-2.741-.693-3.983a6.54 6.54 0 0 0-2.298-3.049c-1.263-.983-2.807-1.576-4.631-1.776a22.866 22.866 0 0 0-5.653.105 53.98 53.98 0 0 0-2.736.504c-.899.188-1.763.391-2.588.609a35.232 35.232 0 0 0-7.95 3.198c-2.579 1.412-4.863 3.016-6.856 4.809a27.643 27.643 0 0 0-5.581 6.666c-1.483 2.488-2.224 5.098-2.224 7.827 0 3.703 1.277 6.182 3.829 7.433 2.553 1.25 5.483 1.682 8.791 1.294a28.227 28.227 0 0 0 2.552-.347c.875-.158 1.75-.353 2.627-.584.193-.052.399-.105.619-.165l.62-.163a42.522 42.522 0 0 0 7.368-3.04 36.784 36.784 0 0 0 6.856-4.655c2.09-1.868 3.829-3.852 5.215-5.949 1.385-2.096 2.223-4.183 2.517-6.26.096-.416.155-.834.179-1.256zM64.25 53.35a16.666 16.666 0 0 1-.401 2.227 29.026 29.026 0 0 1-1.533 4.906 24.879 24.879 0 0 1-2.406 4.552c-.777 1.085-1.543 1.969-2.298 2.656-.754.688-1.544 1.139-2.37 1.357-.973.258-1.69.071-2.151-.564-.462-.635-.742-1.377-.839-2.231a15.278 15.278 0 0 1-.109-.922 10.01 10.01 0 0 1-.036-.868c0-.683.036-1.376.108-2.079.072-.7.207-1.42.401-2.155.34-1.651.838-3.283 1.496-4.896a22.264 22.264 0 0 1 2.37-4.396 18.984 18.984 0 0 1 1.605-1.924 8.686 8.686 0 0 1 1.605-1.341c.242-.209.509-.378.802-.504a6.03 6.03 0 0 1 .803-.286c1.02-.27 1.737-.082 2.151.566.413.648.693 1.391.839 2.229 0 .292.011.572.036.831.023.265.036.518.036.762.001.683-.035 1.377-.109 2.08zm63.374-13.895c.099-.458.166-.897.198-1.323.033-.424.05-.852.05-1.282 0-1.96-.449-3.687-1.346-5.178-.896-1.489-2.377-2.511-4.438-3.063-1.629-.434-3.465-.58-5.51-.438a43.909 43.909 0 0 0-6.256.906 70.234 70.234 0 0 0-3.49.823c-1.43.378-2.968.843-4.613 1.394a69.558 69.558 0 0 0-4.959 1.884 46.677 46.677 0 0 0-9.273 5.541c-2.925 2.235-5.035 4.97-6.332 8.202a9.517 9.517 0 0 0-.449 1.516c-.1.49-.149.97-.149 1.435 0 1.229.382 2.209 1.146 2.938.764.728 1.895.927 3.39.599 1.197-.249 2.186-.709 2.966-1.382.781-.671 1.538-1.487 2.27-2.443a1.14 1.14 0 0 1 .148-.238l.2-.252a7.073 7.073 0 0 0-.748-.226 2.368 2.368 0 0 1-.598-.216c-.399-.16-.699-.354-.898-.585-.2-.229-.316-.557-.348-.979 0-.199.024-.422.075-.669.049-.245.107-.525.174-.843.366-1.293 1.104-2.575 2.218-3.85a24.46 24.46 0 0 1 3.565-3.36 21.24 21.24 0 0 1 2.942-1.974c-.466.755-.881 1.537-1.247 2.348s-.666 1.629-.897 2.455c-.267.834-.533 1.669-.798 2.503-.267.834-.532 1.668-.797 2.504a276.75 276.75 0 0 1-1.547 4.97 413.94 413.94 0 0 1-1.644 4.995 9.422 9.422 0 0 0-2.119-.237 12.753 12.753 0 0 0-2.318.214 12.427 12.427 0 0 0-1.545.309 15.85 15.85 0 0 0-2.842 1.05c-1.364.66-2.403 1.45-3.116 2.37-.714.92-1.088 1.815-1.122 2.688v.225c0 .083.017.154.05.212.1.606.382 1.146.847 1.621.465.474 1.113.835 1.945 1.08.929.219 1.952.289 3.065.211a21.33 21.33 0 0 0 3.416-.53l.574-.15c.182-.049.356-.111.522-.188a31.81 31.81 0 0 0 4.413-1.738 38.792 38.792 0 0 0 3.914-2.154c.165-.11.324-.22.473-.325.15-.105.292-.21.424-.312.165-.109.322-.219.472-.323.15-.106.308-.216.475-.325.166-.011.323-.001.473.023.15.026.308.034.475.023.331.013.688.019 1.07.017.383-.001.757 0 1.123.003a25.3 25.3 0 0 0 3.091-.293 31.731 31.731 0 0 0 3.241-.683l.772-.204c.249-.065.49-.146.724-.241 3.624-1.123 7.071-2.931 10.344-5.425 3.273-2.493 5.625-5.673 7.055-9.541.266-.668.489-1.351.674-2.046.182-.707.323-1.384.425-2.043zM87.166 61.113c-.815.681-1.655 1.202-2.518 1.563a4.292 4.292 0 0 1-.598.208c-.2.054-.4.105-.598.158a8.045 8.045 0 0 1-.574.127c-.216.041-.44.075-.673.104a4.413 4.413 0 0 1-1.146-.095c-.333-.079-.498-.285-.498-.618v-.175c0-.05.017-.095.049-.137.1-.325.291-.633.573-.924.283-.291.607-.551.973-.781.432-.279.88-.514 1.346-.704.466-.188.931-.346 1.396-.468.166-.045.323-.085.473-.125s.291-.06.424-.062a13.182 13.182 0 0 1 1.794-.25c.598-.042 1.163-.05 1.696-.025-.6.789-1.305 1.525-2.119 2.204zm29.463-25.58c-.019.303-.043.592-.075.866a16.745 16.745 0 0 1-.351 2.235 64.325 64.325 0 0 1-.498 2.075 10.61 10.61 0 0 1-.2.75c-.166.577-.35 1.165-.549 1.767a26.542 26.542 0 0 1-.697 1.853c-1.031 2.467-2.418 4.854-4.164 7.157-1.745 2.305-3.797 3.77-6.157 4.394a7.632 7.632 0 0 1-1.321.226c-.45.035-.906.047-1.371.037.531-.639.997-1.303 1.396-1.988.398-.687.715-1.409.947-2.168.233-.729.458-1.443.674-2.147.215-.705.44-1.42.673-2.146.132-.368.25-.722.348-1.064.1-.341.216-.695.35-1.063a824.887 824.887 0 0 0 1.994-6.409 45.35 45.35 0 0 1 1.171-3.25c.382-.932.756-1.728 1.122-2.39.2-.353.39-.668.573-.948.183-.281.374-.531.574-.75a6.88 6.88 0 0 1 1.021-1.042 4.826 4.826 0 0 1 1.173-.734c.1-.059.188-.099.272-.121l.226-.06c.465-.123.905-.123 1.321 0s.738.436.972.938c.231.404.39.879.474 1.421a11.3 11.3 0 0 1 .126 1.71c.002.263-.007.547-.024.851zm89.077-12.32a20.776 20.776 0 0 1-3.988 6.331c-1.695 1.84-3.789 3.088-6.28 3.747-1.229.325-2.22.265-2.968-.185s-1.205-1.246-1.37-2.395c.696-.151 1.528-.404 2.491-.76.964-.354 1.962-.8 2.992-1.338a23.1 23.1 0 0 0 5.135-3.604c1.561-1.442 2.311-3.055 2.244-4.834-.034-1.12-.476-1.901-1.322-2.343a5.98 5.98 0 0 0-2.717-.68c-.102-.007-.191-.007-.274-.002s-.175.004-.274-.003a9.6 9.6 0 0 0-1.845.14 22.52 22.52 0 0 0-3.465.865c-.481.161-.974.34-1.47.538-2.295.906-4.454 2.183-6.48 3.831-2.027 1.647-3.373 3.557-4.039 5.725a11.917 11.917 0 0 0-.373 1.568 8.834 8.834 0 0 0-.125 1.453c0 .412.03.803.092 1.174a18.3 18.3 0 0 1-.687 1.252 5.734 5.734 0 0 1-2.093 2.075c-.135.067-.274.139-.426.212a2.55 2.55 0 0 1-.474.175l-.299.079a.536.536 0 0 1-.248.017c-.767.036-1.307-.188-1.622-.671-.314-.481-.474-1.073-.474-1.771a6.304 6.304 0 0 1 .099-1.175c.232-.127.466-.263.698-.408.232-.145.465-.297.697-.458a15.674 15.674 0 0 0 2.867-2.682c.881-1.048 1.32-2.172 1.32-3.371 0-.964-.333-1.667-.998-2.107-.664-.439-1.429-.678-2.293-.716a7.928 7.928 0 0 0-1.695-.001c-.599.059-1.213.171-1.844.338l-.398.104a1.915 1.915 0 0 0-.398.155c-.931.28-1.861.685-2.793 1.212a16.837 16.837 0 0 0-2.591 1.808l3.737-11.904-9.521 2.516-6.029 19.152-.397-.082a22.543 22.543 0 0 1-1.097 2.41 12.138 12.138 0 0 1-1.545 2.228c-.166.177-.332.354-.5.53l-.496.53a23.39 23.39 0 0 1-.748.548 2.08 2.08 0 0 1-.648.319c-.199.053-.357.037-.475-.049-.116-.085-.174-.261-.174-.527 0-.165.017-.361.049-.586.033-.225.1-.482.199-.775.332-.985.656-1.977.974-2.975.315-.995.622-2 .922-3.01.3-.977.606-1.964.923-2.961.314-.998.639-1.988.973-2.973l-3.166.836-3.115.824c-.532.141-1.057.278-1.571.415-.515.136-1.038.273-1.569.415a.3.3 0 0 1-.025.106.235.235 0 0 0-.024.105c-.032.042-.049.08-.049.112a.43.43 0 0 0-.075.146.578.578 0 0 0-.025.181 3.025 3.025 0 0 1-.123.408 2.96 2.96 0 0 0-.125.407 56.38 56.38 0 0 0-.574 1.772c-.182.599-.355 1.185-.521 1.761a62.522 62.522 0 0 1-1.422 3.794 17.018 17.018 0 0 1-1.869 3.414c-.565.849-1.089 1.461-1.57 1.837-.482.377-.889.609-1.221.696-.301.08-.508.068-.625-.033-.115-.104-.174-.254-.174-.454 0-.133.024-.281.075-.443.049-.164.091-.315.124-.458.332-1.019.656-2.036.973-3.05.314-1.016.641-2.033.973-3.053a233.282 233.282 0 0 1 1.895-6.091l-9.472 2.503a134.64 134.64 0 0 0-1.695 5.339 304.364 304.364 0 0 1-1.694 5.339c-.168.51-.301 1.026-.398 1.552a8.065 8.065 0 0 0-.15 1.538c0 1.425.424 2.563 1.271 3.417s2.168 1.042 3.964.567c1.729-.457 3.349-1.301 4.86-2.53a23.53 23.53 0 0 0 3.963-4.088c.231 1.434.881 2.343 1.943 2.726 1.063.384 2.312.386 3.74.008 1.495-.395 2.816-.952 3.963-1.669a15.103 15.103 0 0 0 2.82-2.282l-.655 2.082 9.522-2.517 3.188-10.013a11.943 11.943 0 0 1 .499-1.328 15.528 15.528 0 0 1 1.82-2.998c.747-.979 1.604-1.678 2.566-2.099.033-.009.066-.019.101-.026a.206.206 0 0 0 .099-.077c.033-.009.067-.019.102-.027.033-.008.066-.018.1-.025.365-.097.646-.08.848.05.199.13.316.34.35.631 0 .133-.025.297-.074.493a2.825 2.825 0 0 1-.273.646 7.254 7.254 0 0 1-1.695 2.045 23.717 23.717 0 0 1-2.193 1.625c-.267.17-.541.344-.822.518s-.557.346-.822.515a.426.426 0 0 1-.125.109.508.508 0 0 1-.125.058c0 .333.018.678.05 1.034.032.357.067.712.101 1.069.133.962.357 1.867.674 2.713.314.848.84 1.539 1.569 2.077.699.514 1.513.789 2.443.825.93.035 1.961-.097 3.091-.395 1.595-.421 2.991-.99 4.188-1.705a14.17 14.17 0 0 0 3.143-2.523 15.908 15.908 0 0 0 1.896-2.5c.131.134.27.262.416.384 1.248 1.031 2.834 1.625 4.762 1.78.73.04 1.479.031 2.244-.021a15.784 15.784 0 0 0 2.344-.346c.164-.012.348-.042.547-.096l.6-.158c1.264-.333 2.5-.777 3.715-1.329a20.697 20.697 0 0 0 3.465-2.013c1.828-1.343 3.256-2.829 4.287-4.46a40.237 40.237 0 0 0 2.791-5.268l-2.508-.483zm-14.01 3.404c.1-.425.232-.859.398-1.302.466-1.286 1.146-2.529 2.045-3.729.896-1.201 1.96-1.947 3.189-2.238.564-.117.996-.098 1.297.057.299.153.447.512.447 1.076-.031 1.372-.572 2.577-1.619 3.619a14.497 14.497 0 0 1-3.466 2.561c-.433.247-.864.461-1.296.642s-.848.341-1.247.479c.068-.352.152-.74.252-1.165z"/>
        <filter id="arcadeGlow">
            <feGaussianBlur stdDeviation="5" result="coloredBlur"/>
            <feGaussianBlur in="SourceAlpha" stdDeviation="2.5" result="blur"/>
            <feColorMatrix result="bluralpha" type="matrix" values=
                    "1 0 0 0   0
             0 1 0 0   0
             0 0 1 0   0
             0 0 0 0.4 0 "/>
            <feOffset in="bluralpha" dx="5" dy="5" result="offsetBlur"/>


            <feMerge>
                <feMergeNode in="offsetBlur"/>
                <feMergeNode in="coloredBlur"/>
                <feMergeNode in="SourceGraphic"/>
            </feMerge>
        </filter>
        <filter id="glow">
            <feGaussianBlur stdDeviation="5" result="coloredBlur"/>
            <feMerge>
                <feMergeNode in="coloredBlur"/>
                <feMergeNode in="SourceGraphic"/>
            </feMerge>
        </filter>
    </defs>
    <g id="arcade" class="logo" fill="#00ccff" filter="url(#arcadeGlow)">
        <use xlink:href="#bg" fill="#343a40"/>
        <use xlink:href="#border"/>
        <use xlink:href="#copy" filter="url(#glow)"/>
    </g>
    <g id="outline" class="logo" fill="#fff">
        <use xlink:href="#border"/>
        <use xlink:href="#copy"/>
    </g>
    <g id="grey" class="logo">
        <use xlink:href="#bg" fill="#cacaca"/>
        <use xlink:href="#border" fill="#fff"/>
        <use xlink:href="#copy" fill="#fff"/>
    </g>
    <g id="primary" class="logo">
        <use xlink:href="#bg" fill="url(#BG)"/>
        <use xlink:href="#bg-top" fill="url(#BG-OVERLAY)"/>
        <use xlink:href="#border" fill="#fff"/>
        <use xlink:href="#copy" fill="#fff"/>
    </g>
</svg>
