<svg xmlns="http://www.w3.org/2000/svg" width="462" height="336" xml:space="preserve"><g fill="#0cf"><path d="M84 0h42v42H84zM126 42h42v42h-42zM84 84h42v42H84zM42 126h42v42H42zM0 84h42v42H0zM0 42h42v42H0zM0 126h42v42H0zM42 168h42v42H42zM0 168h42v42H0zM42 210h42v42H42zM84 126h42v42H84zM84 168h42v42H84zM84 210h42v42H84zM84 252h42v42H84zM42 294h42v42H42zM126 84h42v42h-42zM168 84h42v42h-42zM210 84h42v42h-42zM252 84h42v42h-42zM294 42h42v42h-42zM336 0h42v42h-42zM294 84h42v42h-42zM336 84h42v42h-42zM420 84h42v42h-42zM420 42h42v42h-42zM420 126h42v42h-42zM420 168h42v42h-42zM336 126h42v42h-42zM336 168h42v42h-42zM336 210h42v42h-42zM378 126h42v42h-42zM378 168h42v42h-42zM378 210h42v42h-42zM336 252h42v42h-42zM378 294h42v42h-42zM126 210h42v42h-42zM168 210h42v42h-42zM210 210h42v42h-42zM252 210h42v42h-42zM294 210h42v42h-42zM126 168h42v42h-42zM168 168h42v42h-42zM210 168h42v42h-42zM252 168h42v42h-42zM294 168h42v42h-42zM168 126h42v42h-42zM210 126h42v42h-42zM252 126h42v42h-42z"/></g></svg>
